<svg width="49" height="48" viewBox="0 0 49 48" fill="none" xmlns="http://www.w3.org/2000/svg">
<path d="M10.7333 20.8C16.4613 20.8 21.1333 16.128 21.1333 10.4C21.1333 4.672 16.4613 0 10.7333 0C5.00534 0 0.333344 4.672 0.333344 10.4C0.333344 16.128 5.00534 20.8 10.7333 20.8ZM10.7333 4.8C13.8213 4.8 16.3333 7.312 16.3333 10.4C16.3333 13.488 13.8213 16 10.7333 16C7.64534 16 5.13334 13.488 5.13334 10.4C5.13334 7.312 7.64534 4.8 10.7333 4.8Z" fill="#154EA1"/>
<path d="M10.7333 12.8C12.0588 12.8 13.1333 11.7255 13.1333 10.4C13.1333 9.07452 12.0588 8 10.7333 8C9.40786 8 8.33334 9.07452 8.33334 10.4C8.33334 11.7255 9.40786 12.8 10.7333 12.8Z" fill="#2592C8"/>
<path d="M17.5974 25.136L22.3974 29.936C22.7174 30.256 23.1174 30.4 23.5334 30.4C23.9494 30.4 24.3494 30.24 24.6694 29.936C25.2934 29.312 25.2934 28.304 24.6694 27.68L21.0054 24.016L24.6694 20.352C25.2934 19.728 25.2934 18.72 24.6694 18.096C24.0454 17.472 23.0374 17.472 22.4134 18.096L17.6134 22.896C16.9894 23.52 16.9894 24.528 17.6134 25.152L17.5974 25.136Z" fill="#098EBB"/>
<path d="M24.7814 12H40.7814C42.5414 12 43.9814 13.44 43.9814 15.2V19.2C43.9814 20.96 42.5414 22.4 40.7814 22.4H25.8054L24.2054 24L25.8054 25.6H40.7814C44.3174 25.6 47.1814 22.736 47.1814 19.2V15.2C47.1814 11.664 44.3174 8.8 40.7814 8.8H24.7814C23.9014 8.8 23.1814 9.52 23.1814 10.4C23.1814 11.28 23.9014 12 24.7814 12Z" fill="#098EBB"/>
<path d="M37.9333 27.2C32.2053 27.2 27.5333 31.872 27.5333 37.6C27.5333 43.328 32.2053 48 37.9333 48C43.6613 48 48.3333 43.328 48.3333 37.6C48.3333 31.872 43.6613 27.2 37.9333 27.2ZM43.0693 36.272L38.1573 41.184C37.8373 41.504 37.4373 41.648 37.0213 41.648C36.6053 41.648 36.2053 41.488 35.8853 41.184L32.7973 38.096C32.1733 37.472 32.1733 36.464 32.7973 35.84C33.4213 35.216 34.4293 35.216 35.0533 35.84L37.0213 37.808L40.7973 34.032C41.4213 33.408 42.4293 33.408 43.0533 34.032C43.6773 34.656 43.6773 35.664 43.0533 36.288L43.0693 36.272Z" fill="#21AB37"/>
<path d="M17.9333 36H6.73334C4.97334 36 3.53334 34.56 3.53334 32.8V28.8C3.53334 27.04 4.97334 25.6 6.73334 25.6H13.1333C14.0133 25.6 14.7333 24.88 14.7333 24C14.7333 23.12 14.0133 22.4 13.1333 22.4H6.73334C3.19734 22.4 0.333344 25.264 0.333344 28.8V32.8C0.333344 36.336 3.19734 39.2 6.73334 39.2H17.9333C18.8133 39.2 19.5333 38.48 19.5333 37.6C19.5333 36.72 18.8133 36 17.9333 36Z" fill="#098EBB"/>
<path d="M24.3333 36H23.5333C22.6533 36 21.9333 36.72 21.9333 37.6C21.9333 38.48 22.6533 39.2 23.5333 39.2H24.3333C25.2133 39.2 25.9333 38.48 25.9333 37.6C25.9333 36.72 25.2133 36 24.3333 36Z" fill="#098EBB"/>
</svg>
