<svg width="48" height="48" viewBox="0 0 48 48" fill="none" xmlns="http://www.w3.org/2000/svg">
<path d="M16.3363 44.25H5.68986C4.88932 44.25 4.40666 43.8032 4.18986 43.537C3.81596 43.077 3.67131 42.4786 3.79289 41.8945C5.74003 32.5415 13.9941 25.7117 23.5229 25.4901C23.6811 25.496 23.84 25.5 24 25.5C31.0302 25.5 36.75 19.7805 36.75 12.75C36.75 5.7195 31.0302 2.28882e-05 24 2.28882e-05C16.9695 2.28882e-05 11.25 5.7195 11.25 12.75C11.25 16.9226 13.2649 20.6338 16.373 22.9611C13.5257 23.8982 10.8538 25.3561 8.51517 27.2794C4.22795 30.806 1.24699 35.725 0.121627 41.1302C-0.231033 42.824 0.191574 44.5635 1.28068 45.9031C2.3643 47.2357 3.9716 48 5.68986 48H16.3363C17.3716 48 18.2113 47.1606 18.2113 46.125C18.2113 45.0893 17.3716 44.25 16.3363 44.25ZM15 12.75C15 7.78749 19.0371 3.75002 24 3.75002C28.9625 3.75002 33 7.78749 33 12.75C33 17.6415 29.0775 21.6339 24.2128 21.7474C24.1428 21.7394 24.0722 21.7343 24 21.7343C23.8535 21.7343 23.7074 21.7365 23.5613 21.739C18.8017 21.5098 15 17.5657 15 12.75ZM43.3363 28.875H28.0071C25.4359 28.875 23.3438 30.9672 23.3438 33.5383V43.3367C23.3438 45.9078 25.4359 48 28.0071 48H43.3363C45.9078 48 48 45.9078 48 43.3367V33.5383C48 30.9672 45.9078 28.875 43.3363 28.875ZM43.1803 32.625L36.0139 37.081C35.7162 37.266 35.3467 37.266 35.049 37.081L27.8947 32.6327C27.9317 32.6279 27.969 32.625 28.0071 32.625H43.1803ZM43.3363 44.25H28.0071C27.5036 44.25 27.0934 43.8402 27.0934 43.3367V36.5504L33.0689 40.2656C33.8284 40.7377 34.6798 40.9739 35.5313 40.9739C36.3827 40.9739 37.2345 40.7377 37.994 40.2656L44.25 36.3757V43.3367C44.25 43.8402 43.8398 44.25 43.3363 44.25Z" fill="#154EA1"/>
</svg>
