<svg width="49" height="48" viewBox="0 0 49 48" fill="none" xmlns="http://www.w3.org/2000/svg">
<path d="M11.0666 20.8C16.7946 20.8 21.4666 16.128 21.4666 10.4C21.4666 4.672 16.7946 0 11.0666 0C5.33863 0 0.666626 4.672 0.666626 10.4C0.666626 16.128 5.33863 20.8 11.0666 20.8ZM11.0666 4.8C14.1546 4.8 16.6666 7.312 16.6666 10.4C16.6666 13.488 14.1546 16 11.0666 16C7.97863 16 5.46663 13.488 5.46663 10.4C5.46663 7.312 7.97863 4.8 11.0666 4.8Z" fill="#154EA1"/>
<path d="M11.0666 12.8C12.3921 12.8 13.4666 11.7255 13.4666 10.4C13.4666 9.07452 12.3921 8 11.0666 8C9.74114 8 8.66663 9.07452 8.66663 10.4C8.66663 11.7255 9.74114 12.8 11.0666 12.8Z" fill="#494470"/>
<path d="M25.1147 12H41.1147C42.8747 12 44.3147 13.44 44.3147 15.2V19.2C44.3147 20.96 42.8747 22.4 41.1147 22.4H33.2372L31.6372 24L33.2372 25.6H41.1147C44.6507 25.6 47.5147 22.736 47.5147 19.2V15.2C47.5147 11.664 44.6507 8.8 41.1147 8.8H25.1147C24.2347 8.8 23.5146 9.52 23.5146 10.4C23.5146 11.28 24.2347 12 25.1147 12Z" fill="#494470"/>
<path d="M38.2666 27.2C32.5386 27.2 27.8666 31.872 27.8666 37.6C27.8666 43.328 32.5386 48 38.2666 48C43.9946 48 48.6666 43.328 48.6666 37.6C48.6666 31.872 43.9946 27.2 38.2666 27.2ZM43.4026 36.272L38.4906 41.184C38.1706 41.504 37.7706 41.648 37.3546 41.648C36.9386 41.648 36.5386 41.488 36.2186 41.184L33.1306 38.096C32.5066 37.472 32.5066 36.464 33.1306 35.84C33.7546 35.216 34.7626 35.216 35.3866 35.84L37.3546 37.808L41.1306 34.032C41.7546 33.408 42.7626 33.408 43.3866 34.032C44.0106 34.656 44.0106 35.664 43.3866 36.288L43.4026 36.272Z" fill="#F22F46"/>
<path d="M18.2666 36H7.06663C5.30663 36 3.86663 34.56 3.86663 32.8V28.8C3.86663 27.04 5.30663 25.6 7.06663 25.6H13.4666C14.3466 25.6 15.0666 24.88 15.0666 24C15.0666 23.12 14.3466 22.4 13.4666 22.4H7.06663C3.53063 22.4 0.666626 25.264 0.666626 28.8V32.8C0.666626 36.336 3.53063 39.2 7.06663 39.2H18.2666C19.1466 39.2 19.8666 38.48 19.8666 37.6C19.8666 36.72 19.1466 36 18.2666 36Z" fill="#494470"/>
<path d="M24.6666 36H23.8666C22.9866 36 22.2666 36.72 22.2666 37.6C22.2666 38.48 22.9866 39.2 23.8666 39.2H24.6666C25.5466 39.2 26.2666 38.48 26.2666 37.6C26.2666 36.72 25.5466 36 24.6666 36Z" fill="#494470"/>
</svg>
