<svg width="141" height="44" viewBox="0 0 141 44" fill="none" xmlns="http://www.w3.org/2000/svg">
<path d="M53.8424 38.3303L55.2077 29.8549H51.8563L52.0334 28.7657H60.0727L59.8956 29.8549H56.572L55.2067 38.3303H53.8414H53.8424Z" fill="#A5A8A9"/>
<path d="M63.7711 35.9749L65.0046 36.0924C64.8636 36.6622 64.4919 37.2042 63.8895 37.7174C63.2872 38.2305 62.5469 38.4871 61.6697 38.4871C61.1219 38.4871 60.6112 38.3686 60.1396 38.1316C59.667 37.8946 59.2974 37.5494 59.0307 37.097C58.764 36.6447 58.6127 36.1295 58.5766 35.5503C58.5303 34.794 58.6714 34.0593 59.0019 33.3483C59.3314 32.6373 59.7834 32.1087 60.3569 31.7624C60.9304 31.4162 61.5626 31.2441 62.2545 31.2441C63.1369 31.2441 63.8576 31.5007 64.4167 32.0139C64.9758 32.527 65.2826 33.2277 65.3372 34.1149C65.3578 34.454 65.3475 34.8022 65.3042 35.1588H59.8565C59.8462 35.2938 59.8441 35.4154 59.8513 35.5246C59.8915 36.1727 60.0809 36.6673 60.4197 37.0084C60.7584 37.3495 61.1579 37.5206 61.6182 37.5206C62.0506 37.5206 62.4666 37.3876 62.8681 37.1228C63.2697 36.858 63.5714 36.4747 63.7732 35.9749H63.7711ZM60.0017 34.2592H64.1541C64.1511 34.1376 64.148 34.05 64.1449 33.9985C64.1088 33.407 63.9225 32.9536 63.5868 32.6383C63.2512 32.323 62.8352 32.1653 62.3389 32.1653C61.8004 32.1653 61.3196 32.3395 60.8974 32.6878C60.4753 33.0361 60.1767 33.5595 60.0017 34.2602V34.2592Z" fill="#A5A8A9"/>
<path d="M71.3688 35.8049L72.6373 35.9285C72.3747 36.7941 71.9649 37.4371 71.4079 37.8565C70.8509 38.2759 70.2012 38.4861 69.4578 38.4861C68.6547 38.4861 67.9875 38.2429 67.4582 37.7555C66.929 37.2681 66.6376 36.588 66.5831 35.7132C66.5367 34.9568 66.651 34.2128 66.9259 33.4822C67.2008 32.7517 67.6261 32.1962 68.1996 31.815C68.7731 31.4348 69.4423 31.2441 70.2094 31.2441C70.9765 31.2441 71.6457 31.4543 72.1358 31.8737C72.6259 32.2931 72.8926 32.8496 72.9348 33.541L71.6993 33.6193C71.6674 33.1803 71.5109 32.8362 71.2277 32.5889C70.9456 32.3405 70.5863 32.2169 70.1497 32.2169C69.6431 32.2169 69.2138 32.3673 68.8606 32.6672C68.5074 32.967 68.2438 33.4225 68.0709 34.0335C67.8969 34.6446 67.8279 35.233 67.8629 35.7987C67.8989 36.3902 68.0657 36.8343 68.3633 37.13C68.6598 37.4258 69.013 37.5741 69.4217 37.5741C69.8305 37.5741 70.2125 37.4288 70.5688 37.1372C70.925 36.8456 71.1906 36.4025 71.3677 35.8059L71.3688 35.8049Z" fill="#A5A8A9"/>
<path d="M73.5516 38.3305L75.094 28.7659H76.3553L75.7663 32.4394C76.2091 32.0128 76.6271 31.7078 77.0194 31.5223C77.4117 31.3379 77.8215 31.2451 78.2498 31.2451C78.8624 31.2451 79.3484 31.3966 79.7057 31.6985C80.063 32.0005 80.2576 32.4003 80.2884 32.8959C80.3039 33.1391 80.2565 33.5874 80.1484 34.2396L79.4884 38.3305H78.2271L78.9087 34.1355C79.0055 33.5266 79.0498 33.1443 79.0395 32.9876C79.0251 32.762 78.9304 32.5765 78.7543 32.4333C78.5782 32.29 78.3322 32.2179 78.0161 32.2179C77.561 32.2179 77.1337 32.3302 76.7342 32.5538C76.3347 32.7774 76.0299 33.0845 75.8188 33.474C75.6077 33.8635 75.4327 34.4911 75.2906 35.3566L74.8118 38.3315H73.5506L73.5516 38.3305Z" fill="#A5A8A9"/>
<path d="M81.4869 38.3305L82.6061 31.4018H83.749L83.5513 32.6084C84.0188 32.1344 84.4626 31.7882 84.8806 31.5708C85.2986 31.3533 85.7331 31.2441 86.1841 31.2441C86.7834 31.2441 87.2632 31.3966 87.6225 31.7006C87.9829 32.0046 88.1785 32.4116 88.2094 32.9207C88.2248 33.1772 88.1898 33.5822 88.1033 34.1345L87.4217 38.3295H86.1604L86.8719 33.9387C86.9429 33.5121 86.9728 33.1968 86.9594 32.9928C86.945 32.762 86.8493 32.5755 86.6701 32.4312C86.492 32.288 86.2428 32.2158 85.9216 32.2158C85.276 32.2158 84.7148 32.4333 84.2371 32.8681C83.7604 33.3029 83.436 34.049 83.2641 35.1062L82.7452 38.3295H81.4839L81.4869 38.3305Z" fill="#A5A8A9"/>
<path d="M89.483 35.7008C89.3996 34.3478 89.7559 33.2277 90.5508 32.3405C91.2066 31.6099 92.1045 31.2441 93.2422 31.2441C94.1339 31.2441 94.869 31.5048 95.4467 32.0273C96.0243 32.5497 96.3414 33.2535 96.396 34.1407C96.4454 34.9362 96.3187 35.6771 96.0171 36.3623C95.7154 37.0476 95.2593 37.5731 94.6477 37.9379C94.0361 38.3037 93.3802 38.4861 92.679 38.4861C92.1034 38.4861 91.5722 38.3707 91.0862 38.1399C90.6002 37.909 90.2203 37.5834 89.9464 37.1609C89.6715 36.7395 89.518 36.2521 89.483 35.6998V35.7008ZM90.7371 35.5833C90.7773 36.2356 90.975 36.7302 91.3302 37.0672C91.6854 37.4041 92.121 37.5731 92.6358 37.5731C92.9055 37.5731 93.1691 37.5216 93.4276 37.4196C93.686 37.3176 93.9228 37.162 94.137 36.9528C94.3511 36.7436 94.5313 36.5056 94.6744 36.2387C94.8186 35.9708 94.9298 35.6833 95.008 35.3741C95.1254 34.9434 95.1717 34.5302 95.1481 34.1345C95.1089 33.508 94.9112 33.0216 94.5529 32.6764C94.1946 32.3302 93.7601 32.1581 93.2494 32.1581C92.8551 32.1581 92.4999 32.2457 92.1858 32.4219C91.8718 32.5981 91.5938 32.8557 91.3518 33.1948C91.1099 33.5338 90.942 33.9284 90.8463 34.3787C90.7505 34.829 90.7145 35.2299 90.7361 35.5823L90.7371 35.5833Z" fill="#A5A8A9"/>
<path d="M97.2598 38.3305L98.8022 28.7659H100.064L98.5211 38.3305H97.2598Z" fill="#A5A8A9"/>
<path d="M100.589 35.7008C100.505 34.3478 100.861 33.2277 101.656 32.3405C102.312 31.6099 103.21 31.2441 104.348 31.2441C105.239 31.2441 105.975 31.5048 106.552 32.0273C107.13 32.5497 107.447 33.2535 107.502 34.1407C107.551 34.9362 107.424 35.6771 107.123 36.3623C106.821 37.0476 106.365 37.5731 105.753 37.9379C105.142 38.3037 104.486 38.4861 103.785 38.4861C103.209 38.4861 102.678 38.3707 102.192 38.1399C101.706 37.909 101.326 37.5834 101.052 37.1609C100.777 36.7395 100.624 36.2521 100.589 35.6998V35.7008ZM101.842 35.5833C101.882 36.2356 102.08 36.7302 102.435 37.0672C102.79 37.4041 103.225 37.5731 103.74 37.5731C104.01 37.5731 104.274 37.5216 104.532 37.4196C104.791 37.3176 105.027 37.162 105.242 36.9528C105.456 36.7436 105.636 36.5056 105.779 36.2387C105.923 35.9708 106.034 35.6833 106.113 35.3741C106.23 34.9434 106.276 34.5302 106.253 34.1345C106.213 33.508 106.016 33.0216 105.657 32.6764C105.299 32.3302 104.865 32.1581 104.354 32.1581C103.96 32.1581 103.604 32.2457 103.29 32.4219C102.976 32.5981 102.698 32.8557 102.456 33.1948C102.214 33.5338 102.047 33.9284 101.951 34.3787C101.855 34.829 101.819 35.2299 101.841 35.5823L101.842 35.5833Z" fill="#A5A8A9"/>
<path d="M108.431 38.956L109.713 39.0673C109.72 39.3372 109.768 39.5392 109.855 39.6742C109.943 39.8092 110.075 39.9133 110.251 39.9874C110.484 40.0833 110.782 40.1307 111.144 40.1307C111.906 40.1307 112.443 39.9462 112.755 39.5763C112.958 39.328 113.126 38.789 113.261 37.9585L113.352 37.3969C112.735 38.0193 112.058 38.3295 111.319 38.3295C110.581 38.3295 109.929 38.0719 109.394 37.5566C108.859 37.0414 108.561 36.3119 108.503 35.368C108.455 34.5889 108.609 33.8738 108.967 33.2215C109.324 32.5693 109.766 32.0767 110.293 31.7439C110.82 31.4111 111.374 31.2452 111.955 31.2452C112.926 31.2452 113.7 31.6759 114.278 32.5373L114.459 31.4018H115.615L114.537 38.0894C114.42 38.8241 114.242 39.397 114.002 39.8082C113.762 40.2193 113.414 40.5377 112.957 40.7644C112.499 40.9901 111.962 41.1034 111.344 41.1034C110.726 41.1034 110.233 41.0313 109.795 40.8881C109.356 40.7448 109.022 40.5346 108.795 40.2585C108.566 39.9823 108.442 39.666 108.419 39.3094C108.412 39.2002 108.417 39.0827 108.432 38.957L108.431 38.956ZM109.779 35.2639C109.808 35.7379 109.879 36.0944 109.991 36.3335C110.151 36.6684 110.366 36.9239 110.634 37.1001C110.901 37.2764 111.195 37.3639 111.51 37.3639C111.923 37.3639 112.325 37.2279 112.718 36.9559C113.11 36.6838 113.415 36.2634 113.633 35.6936C113.851 35.1238 113.944 34.5797 113.912 34.0624C113.877 33.4926 113.68 33.0392 113.323 32.7022C112.966 32.3652 112.539 32.1963 112.041 32.1963C111.734 32.1963 111.442 32.2735 111.164 32.4281C110.885 32.5827 110.632 32.8176 110.403 33.1329C110.174 33.4482 110.009 33.8254 109.909 34.2654C109.808 34.7044 109.765 35.0372 109.779 35.2639Z" fill="#A5A8A9"/>
<path d="M116.349 38.3305L117.468 31.4018H118.73L117.61 38.3305H116.349ZM117.682 30.1024L117.899 28.7649H119.153L118.936 30.1024H117.682Z" fill="#A5A8A9"/>
<path d="M124.857 35.9749L126.09 36.0924C125.949 36.6622 125.578 37.2042 124.975 37.7174C124.373 38.2305 123.633 38.4871 122.756 38.4871C122.208 38.4871 121.697 38.3686 121.225 38.1316C120.754 37.8946 120.383 37.5494 120.117 37.097C119.85 36.6447 119.699 36.1295 119.663 35.5503C119.616 34.794 119.757 34.0593 120.088 33.3483C120.417 32.6373 120.869 32.1087 121.443 31.7624C122.016 31.4162 122.648 31.2441 123.34 31.2441C124.223 31.2441 124.943 31.5007 125.503 32.0139C126.062 32.527 126.368 33.2277 126.423 34.1149C126.444 34.454 126.433 34.8022 126.39 35.1588H120.942C120.932 35.2938 120.93 35.4154 120.937 35.5246C120.977 36.1727 121.167 36.6673 121.506 37.0084C121.844 37.3495 122.244 37.5206 122.704 37.5206C123.136 37.5206 123.552 37.3876 123.954 37.1228C124.356 36.858 124.657 36.4747 124.858 35.9749H124.857ZM121.086 34.2592H125.239C125.236 34.1376 125.233 34.05 125.23 33.9985C125.194 33.407 125.007 32.9536 124.672 32.6383C124.336 32.323 123.92 32.1653 123.424 32.1653C122.885 32.1653 122.404 32.3395 121.982 32.6878C121.56 33.0361 121.262 33.5595 121.086 34.2602V34.2592Z" fill="#A5A8A9"/>
<path d="M127.475 35.9615L128.731 35.8894C128.752 36.2284 128.826 36.5179 128.952 36.757C129.078 36.9961 129.296 37.1919 129.605 37.3444C129.914 37.4969 130.268 37.5731 130.667 37.5731C131.224 37.5731 131.636 37.469 131.902 37.2599C132.167 37.0507 132.292 36.8054 132.274 36.5231C132.262 36.3191 132.166 36.1253 131.988 35.943C131.805 35.7606 131.371 35.5349 130.689 35.268C130.006 35.0001 129.568 34.8126 129.376 34.7033C129.054 34.5251 128.807 34.3149 128.634 34.0737C128.461 33.8326 128.365 33.5554 128.345 33.2422C128.311 32.694 128.515 32.2241 128.955 31.8325C129.396 31.4409 130.033 31.2452 130.869 31.2452C131.798 31.2452 132.517 31.4461 133.028 31.849C133.538 32.2509 133.823 32.7805 133.882 33.4379L132.653 33.5163C132.609 33.0989 132.431 32.7682 132.118 32.525C131.806 32.2818 131.378 32.1592 130.834 32.1592C130.397 32.1592 130.064 32.2529 129.834 32.4394C129.605 32.627 129.495 32.829 129.51 33.0464C129.524 33.2638 129.64 33.4555 129.859 33.6203C130.005 33.7337 130.376 33.9078 130.971 34.1428C131.961 34.5343 132.588 34.8435 132.853 35.0691C133.275 35.4298 133.502 35.8698 133.534 36.3871C133.555 36.7312 133.463 37.0682 133.258 37.3979C133.053 37.7287 132.725 37.9925 132.275 38.1904C131.826 38.3882 131.287 38.4871 130.66 38.4871C129.805 38.4871 129.066 38.2893 128.443 37.8936C127.819 37.4979 127.497 36.8539 127.474 35.9625L127.475 35.9615Z" fill="#A5A8A9"/>
<path d="M54.7258 5.63963H70.5317L70.0519 9.71813H60.1571L59.7998 12.7538H68.979L68.5208 16.6499H59.3417L58.8989 20.4152H69.0799L68.5713 24.741H52.4792L54.7269 5.63963H54.7258Z" fill="#154EA1"/>
<path d="M70.9343 10.9042H76.4479L78.0984 19.6733L81.9142 10.9042H87.2611L79.7561 24.742H75.0559L70.9343 10.9042Z" fill="#154EA1"/>
<path d="M86.1666 17.8937C86.4147 15.7823 87.3311 14.0429 88.9157 12.6755C90.5003 11.3071 92.5029 10.6229 94.9246 10.6229C97.6933 10.6229 99.6908 11.4266 100.916 13.0331C101.9 14.3273 102.282 15.9214 102.059 17.8154C101.809 19.9443 100.899 21.6878 99.3284 23.0469C97.7582 24.4061 95.7267 25.0862 93.236 25.0862C91.0141 25.0862 89.2833 24.5215 88.0457 23.3921C86.5259 21.9938 85.8999 20.1607 86.1666 17.8937ZM91.4805 17.8813C91.3353 19.1148 91.4774 20.0267 91.9068 20.6171C92.3361 21.2076 92.9282 21.5033 93.6839 21.5033C94.4397 21.5033 95.1089 21.2127 95.668 20.6305C96.2271 20.0494 96.5823 19.1148 96.7337 17.8288C96.8747 16.6304 96.7327 15.737 96.3064 15.1517C95.8801 14.5653 95.3035 14.2727 94.5746 14.2727C93.8013 14.2727 93.129 14.5705 92.5555 15.1651C91.9819 15.7596 91.6236 16.6654 91.4805 17.8813Z" fill="#154EA1"/>
<path d="M105.527 5.63963H110.943L109.782 15.5L114.282 10.9042H120.804L115.273 15.7514L119.462 24.742H113.491L111.343 19.1951L109.117 21.1458L108.694 24.742H103.278L105.526 5.64066L105.527 5.63963Z" fill="#154EA1"/>
<path d="M135.644 19.1704H125.021C125.016 20.0215 125.171 20.6553 125.486 21.0726C125.928 21.6723 126.561 21.9722 127.386 21.9722C127.907 21.9722 128.416 21.8423 128.916 21.5816C129.222 21.4168 129.563 21.1262 129.942 20.7088L135.107 21.1911C134.144 22.5812 133.064 23.5776 131.865 24.1814C130.665 24.7853 129.012 25.0872 126.902 25.0872C125.07 25.0872 123.661 24.8286 122.671 24.3123C121.682 23.795 120.908 22.9748 120.35 21.8496C119.792 20.7253 119.604 19.4022 119.782 17.8823C120.036 15.7194 120.934 13.9687 122.476 12.6312C124.019 11.2937 126.009 10.6249 128.448 10.6249C130.427 10.6249 131.954 10.9248 133.029 11.5235C134.104 12.1232 134.874 12.9918 135.34 14.1295C135.805 15.2681 135.93 16.7489 135.715 18.5727L135.644 19.1714V19.1704ZM130.553 16.6303C130.569 15.6051 130.38 14.8714 129.986 14.4283C129.59 13.9852 129.029 13.7637 128.3 13.7637C127.458 13.7637 126.746 14.0985 126.164 14.7673C125.793 15.1846 125.516 15.805 125.333 16.6303H130.554H130.553Z" fill="#154EA1"/>
<path d="M24.6267 18.8036C16.3639 21.5281 8.99793 21.5755 8.26174 18.9179C7.97345 17.9534 8.61388 16.7705 9.92666 15.5103C6.65964 17.3053 4.73835 19.223 5.05857 20.7089C5.63516 23.285 12.7448 23.5941 20.9118 21.3694C27.5416 19.5888 32.8575 16.6973 34.299 14.2902C31.865 15.9049 28.5022 17.5526 24.6267 18.8046V18.8036Z" fill="#FF5101"/>
<path d="M22.1999 26.9523C14.8792 29.3275 8.35237 29.3687 7.69958 27.0512C7.44423 26.2104 8.01156 25.1789 9.17504 24.0794C6.28075 25.6447 4.57775 27.3161 4.86192 28.6124C5.37262 30.8587 11.6719 31.1287 18.9081 29.1884C24.7822 27.6355 29.4927 25.115 30.7695 23.016C28.6124 24.4236 25.6337 25.86 22.1999 26.9523Z" fill="#FF5101"/>
<path d="M21.5584 34.0614C16.5348 35.708 12.0559 35.7358 11.608 34.1304C11.433 33.5472 11.8222 32.8331 12.6202 32.0716C10.634 33.1566 9.46538 34.3148 9.65998 35.2124C10.0101 36.7694 14.3335 36.9559 19.2994 35.6111C23.3304 34.5354 26.5624 32.7888 27.4386 31.3338C25.959 32.3096 23.9142 33.305 21.5584 34.0614Z" fill="#FF5101"/>
<path fill-rule="evenodd" clip-rule="evenodd" d="M27.3428 2.89658C19.4785 2.89658 12.8004 7.86127 10.3354 14.756C13.0197 9.39251 18.6054 5.71588 25.0962 5.71588C33.0542 5.71588 39.6696 11.2628 41.1986 18.648C41.4168 19.6897 41.5414 20.7934 41.5414 21.9268C41.5414 30.8443 34.1765 38.077 25.0962 38.077C24.8151 38.077 24.534 38.077 24.2539 38.0461C25.2527 38.2295 26.2823 38.3223 27.3439 38.3223C37.2983 38.3223 45.35 30.3847 45.35 20.6089C45.35 10.8331 37.2973 2.89658 27.3428 2.89658Z" fill="#154EA1"/>
</svg>
