<svg width="161" height="36" viewBox="0 0 161 36" fill="none" xmlns="http://www.w3.org/2000/svg">
<path d="M31.6102 9.67388C31.9119 9.71722 32.2475 9.857 32.5417 9.94516C32.4909 10.0053 32.4363 10.0628 32.3837 10.1213L32.2081 10.2935C32.01 10.0858 31.8107 9.87929 31.6102 9.67388Z" fill="#1764AE"/>
<path d="M7.44303 29.3487L7.45846 29.3828C7.51404 29.3722 7.56656 29.3603 7.62087 29.3439L7.64004 29.3578C7.56516 29.5081 7.44608 29.6406 7.38054 29.7911C7.31722 29.9364 7.40557 30.2636 7.22569 30.3192C7.0727 30.3665 6.89942 30.3003 6.7497 30.3657C6.48542 30.376 6.21182 30.3489 5.94745 30.334C4.83668 30.2713 3.694 30.129 2.6134 29.8616C3.20975 29.8195 3.80758 29.7979 4.40317 29.7448C5.42156 29.6519 6.43484 29.5198 7.44303 29.3487Z" fill="#249ECF"/>
<path d="M24.9044 10.2043C25.7937 10.2117 26.683 10.2146 27.5723 10.2129L27.5708 13.0455L24.8987 13.0483C24.9066 12.1003 24.9085 11.1523 24.9044 10.2043Z" fill="url(#paint0_linear_11_109)"/>
<path d="M11.4134 10.2017C12.3036 10.2209 13.1987 10.2033 14.0891 10.1982L14.0958 13.035C13.2062 13.061 12.313 13.0259 11.4224 13.0436L11.4134 10.2017Z" fill="url(#paint1_linear_11_109)"/>
<path d="M31.0066 4.13415C31.6527 4.56406 32.4931 5.26394 33.0157 5.82732C31.935 6.57809 30.7344 7.28794 29.4934 7.73856C29.0326 7.36964 28.58 7.01651 28.0874 6.68942C28.0242 6.57886 27.82 6.42884 27.8203 6.30794C28.0812 6.12255 28.3883 6.00411 28.6486 5.81949C28.9099 5.63414 29.4173 4.98333 29.7018 4.95456C29.7609 4.94854 29.8187 4.94832 29.8714 4.91755C30.0708 4.80134 30.235 4.61454 30.431 4.48932C30.5543 4.41057 30.734 4.3656 30.8399 4.26992C30.893 4.22195 30.9511 4.17949 31.0066 4.13415Z" fill="#29A658"/>
<path d="M7.44302 29.3487C10.206 28.8249 12.8762 28.0313 15.515 27.0626C16.0418 26.8692 16.5516 26.6371 17.0753 26.4383C17.0809 27.161 17.1033 27.8931 17.0687 28.6146C14.1884 29.8941 9.8728 30.4961 6.74969 30.3657C6.89941 30.3003 7.07269 30.3665 7.22568 30.3192C7.40557 30.2636 7.31722 29.9364 7.38053 29.7911C7.44607 29.6406 7.56515 29.5081 7.64003 29.3578L7.62086 29.344C7.56656 29.3603 7.51403 29.3722 7.45845 29.3828L7.44302 29.3487Z" fill="url(#paint2_linear_11_109)"/>
<path d="M17.0441 22.4535C17.091 22.508 17.0645 24.5396 17.0639 24.7885C12.4213 26.8637 5.76301 28.2966 0.663058 28.1321L0.647385 28.1111C0.810101 28.0353 2.16105 27.8166 2.44797 27.7578C3.29414 27.5843 4.14086 27.3781 4.97834 27.1672C5.79703 26.9589 6.61021 26.731 7.41791 26.4835C8.2256 26.236 9.02687 25.9691 9.8217 25.6829C10.6165 25.3967 11.404 25.0915 12.1841 24.7674C12.9641 24.4432 13.736 24.1004 14.4995 23.7389C15.3547 23.3377 16.234 22.9408 17.0441 22.4535Z" fill="#37AD59"/>
<path d="M15.0908 10.206C16.3175 10.2453 17.553 10.2192 18.7807 10.2167C20.492 10.2236 22.2033 10.2208 23.9146 10.2084L23.9129 13.0481L21.3188 13.0336L21.3231 17.551C21.3304 18.1685 21.3332 18.7859 21.3316 19.4034C21.3316 19.7241 21.3445 20.0516 21.3228 20.3714C21.3155 20.3586 21.306 20.3468 21.301 20.3329C21.2631 20.2259 21.2977 18.9451 21.2978 18.7518C21.2981 18.1957 21.3102 17.6371 21.2932 17.0814C21.2785 16.5991 21.2722 16.1192 21.2705 15.6367C21.2697 15.3904 21.2555 15.1393 21.2757 14.8938C21.1776 14.7241 21.0568 14.5755 20.8575 14.5239C20.7773 14.5032 20.6913 14.5006 20.6093 14.5095C20.4263 14.5296 20.251 14.6049 20.0694 14.6338C19.6503 14.7005 19.2406 14.7259 18.83 14.8491C18.6063 14.9162 18.4028 15.0443 18.1845 15.1073C18.1136 15.2268 18.0604 15.358 17.9291 15.4194C17.9289 16.019 17.9905 20.4629 17.909 20.623C17.8879 20.3658 17.9038 20.0935 17.9032 19.8347L17.8984 18.2518C17.8893 16.5118 17.892 14.772 17.9066 13.0322L15.0915 13.029L15.0908 10.206Z" fill="url(#paint3_linear_11_109)"/>
<path d="M18.1845 15.1073C18.4028 15.0443 18.6063 14.9163 18.83 14.8491C19.2406 14.7259 19.6503 14.7005 20.0694 14.6338C20.251 14.6049 20.4263 14.5296 20.6093 14.5095C20.6913 14.5006 20.7773 14.5032 20.8575 14.5239C21.0568 14.5755 21.1776 14.7241 21.2757 14.8938C21.2555 15.1393 21.2697 15.3904 21.2705 15.6367C21.2722 16.1192 21.2785 16.5991 21.2933 17.0814C21.3102 17.6371 21.2981 18.1957 21.2978 18.7518C21.2977 18.9451 21.2631 20.2259 21.301 20.3329C21.306 20.3468 21.3156 20.3586 21.3228 20.3714C21.3629 21.3037 21.3305 22.2476 21.3339 23.1817L21.3423 29.0955C20.1975 29.0898 19.0527 29.091 17.9079 29.0988L17.9062 23.4591C17.9055 22.5183 17.8687 21.5621 17.9091 20.623C17.9905 20.4629 17.929 16.0191 17.9291 15.4194C18.0604 15.358 18.1136 15.2268 18.1845 15.1073Z" fill="#1764AE"/>
<path d="M30.4018 8.38714C30.9959 8.02254 31.6355 7.72954 32.2342 7.36936C33.6742 6.50297 35.2856 5.24437 36.3136 3.91083C36.599 3.54054 36.8478 3.1322 37.0634 2.7174C37.2967 2.26859 37.4996 1.78415 37.6581 1.30403C37.7414 1.05177 37.7931 0.731909 37.9131 0.5L37.936 0.510382L37.9493 0.593092C37.9889 0.823906 38.0634 1.09578 38.0638 1.3277L38.0214 1.31191C38.0082 1.23496 37.9957 1.15787 37.984 1.08063L37.9594 1.0643C37.8983 1.19025 37.9372 1.32657 37.863 1.44919C37.7505 2.14529 37.7083 2.85032 37.5866 3.54742C37.2908 5.24122 36.7435 6.84189 36.081 8.423C35.9612 8.70904 35.6959 9.44255 35.5291 9.66409C35.4117 9.75636 34.9266 10.6638 34.8142 10.8484C34.5615 11.2621 34.2946 11.6664 34.0135 12.0613C33.7323 12.4562 33.4376 12.8407 33.1293 13.2147C31.8645 14.7651 30.4412 16.1176 28.9124 17.4035C28.1647 18.0388 27.395 18.6462 26.6034 19.2259C25.8118 19.8057 25.0003 20.3561 24.169 20.8772C23.4772 21.3112 22.7641 21.7011 22.0546 22.1046L22.0669 19.545C23.0248 18.9279 24.029 18.3896 24.9797 17.7571C27.5857 16.0235 29.9073 14.1018 32.0072 11.7786C32.6799 11.0343 33.3501 10.2549 33.8835 9.40313C32.9889 9.19799 32.1169 8.98683 31.2455 8.69533C30.9624 8.60066 30.6743 8.50954 30.4018 8.38714Z" fill="#33CBED"/>
<path d="M37.9492 0.593102C37.9889 0.823915 38.0633 1.09579 38.0638 1.32771L38.0214 1.31192C38.0082 1.23497 37.9957 1.15788 37.984 1.08064L37.9594 1.06431C37.8982 1.19026 37.9372 1.32658 37.8629 1.4492C37.8688 1.19589 37.8714 0.833517 37.9492 0.593102Z" fill="#249ECF"/>
<path d="M37.8629 1.44919C37.9372 1.32657 37.8982 1.19023 37.9594 1.06429L37.9839 1.08063C37.9956 1.15786 38.0081 1.23496 38.0214 1.31191L38.0638 1.3277C38.2611 2.18862 38.3935 3.06515 38.593 3.92676C38.663 4.24204 38.7378 4.5562 38.8174 4.86921C38.8969 5.18225 38.9812 5.49399 39.0701 5.80446C39.1591 6.11492 39.2527 6.42397 39.3511 6.73161C39.4494 7.03925 39.5523 7.34534 39.6599 7.64989C39.7674 7.9544 39.8796 8.25723 39.9963 8.55838C40.1131 8.85953 40.2343 9.15883 40.3601 9.4563C40.4859 9.75378 40.6161 10.0493 40.7508 10.3428C40.8856 10.6363 41.0247 10.9277 41.1682 11.2171C41.5945 12.0743 42.0385 12.9594 42.6254 13.7203C42.1834 13.5828 41.7558 13.368 41.3406 13.1656C39.6894 12.3609 38.2675 11.3859 36.8393 10.2355C36.4398 11.2078 36.0358 12.2077 35.5401 13.1347C34.9098 14.3134 34.1819 15.4071 33.3886 16.4809C33.1133 16.8546 32.8307 17.2228 32.5407 17.5854C32.2508 17.9479 31.9537 18.3046 31.6496 18.6553C31.3455 19.006 31.0344 19.3506 30.7166 19.6889C30.3987 20.0272 30.0743 20.3591 29.7432 20.6846C29.4121 21.01 29.0747 21.3287 28.7309 21.6407C28.3871 21.9527 28.0373 22.2577 27.6814 22.5558C27.3255 22.8539 26.9638 23.1447 26.5963 23.4284C26.2288 23.7121 25.8559 23.9883 25.4774 24.2571C24.749 24.7804 24.0119 25.2706 23.251 25.7453C22.8667 25.985 22.47 26.246 22.0615 26.4406L22.0569 23.3439C22.3978 23.1197 22.7555 22.9224 23.0985 22.701C24.0077 22.1188 24.8944 21.5041 25.7586 20.857C28.892 18.5167 31.7303 15.6927 33.9202 12.4445C34.5121 11.5666 35.0894 10.6287 35.529 9.66408C35.6959 9.44254 35.9611 8.70902 36.081 8.42299C36.7435 6.84189 37.2908 5.24122 37.5865 3.5474C37.7082 2.85031 37.7504 2.14529 37.8629 1.44919Z" fill="url(#paint4_linear_11_109)"/>
<path d="M37.0728 11.7921C37.3286 12.3518 37.5076 13.0807 37.6526 13.6824C37.6821 13.8006 37.7104 13.9191 37.7375 14.0379C37.7646 14.1568 37.7905 14.2759 37.8152 14.3952C37.8399 14.5145 37.8634 14.6341 37.8856 14.7539C37.9079 14.8737 37.929 14.9938 37.9489 15.114C37.9688 15.2342 37.9875 15.3546 38.005 15.4752C38.0224 15.5958 38.0386 15.7166 38.0537 15.8376C38.0687 15.9585 38.0825 16.0796 38.0951 16.2008C38.1077 16.322 38.1191 16.4433 38.1293 16.5648C38.1394 16.6862 38.1484 16.8077 38.1561 16.9294C38.1638 17.051 38.1703 17.1727 38.1756 17.2944C38.1808 17.4162 38.1849 17.5379 38.1877 17.6598C38.1905 17.7816 38.1921 17.9035 38.1925 18.0253C38.1929 18.1472 38.192 18.2691 38.1899 18.3909C38.1878 18.5128 38.1846 18.6346 38.18 18.7563C38.1755 18.8781 38.1697 18.9999 38.1628 19.1215C38.1558 19.2432 38.1476 19.3648 38.1382 19.4863C38.1287 19.6078 38.1181 19.7292 38.1062 19.8505C38.0944 19.9718 38.0813 20.0929 38.067 20.2139C38.0527 20.335 38.0372 20.4558 38.0205 20.5765C38.0038 20.6972 37.9858 20.8178 37.9667 20.9381C37.9476 21.0585 37.9272 21.1786 37.9056 21.2986C37.8841 21.4186 37.8613 21.5383 37.8373 21.6577C37.8134 21.7772 37.7882 21.8965 37.7618 22.0155C37.7355 22.1344 37.7079 22.2531 37.6791 22.3715C37.6504 22.49 37.6204 22.6081 37.5893 22.7259C37.5582 22.8437 37.5259 22.9612 37.4924 23.0784C37.4589 23.1956 37.4242 23.3124 37.3884 23.4289C37.3526 23.5454 37.3156 23.6615 37.2774 23.7772C37.2392 23.893 37.1999 24.0083 37.1594 24.1233C37.1189 24.2382 37.0772 24.3527 37.0344 24.4668C36.9917 24.5809 36.9477 24.6946 36.9026 24.8078C36.8575 24.921 36.8113 25.0338 36.764 25.1461C36.4553 25.8717 36.1057 26.5959 35.6929 27.2686C35.619 27.3897 35.5435 27.5099 35.4665 27.6291C35.3896 27.7483 35.3112 27.8666 35.2313 27.9838C35.1514 28.1011 35.0701 28.2173 34.9873 28.3326C34.9045 28.4479 34.8203 28.5621 34.7347 28.6752C34.6491 28.7884 34.562 28.9004 34.4737 29.0114C34.3852 29.1224 34.2955 29.2323 34.2043 29.341C34.1132 29.4498 34.0207 29.5574 33.9269 29.6638C33.8331 29.7703 33.7379 29.8755 33.6415 29.9796C33.5451 30.0837 33.4473 30.1866 33.3483 30.2882C33.2493 30.3899 33.1491 30.4903 33.0476 30.5895C32.9461 30.6886 32.8434 30.7865 32.7395 30.8831C32.6356 30.9797 32.5304 31.075 32.4241 31.169C32.3178 31.263 32.2103 31.3556 32.1017 31.4469C31.9931 31.5383 31.8834 31.6282 31.7726 31.7168C31.6617 31.8054 31.5498 31.8926 31.4368 31.9783C31.3238 32.0642 31.2097 32.1485 31.0946 32.2315C30.9795 32.3145 30.8633 32.396 30.7462 32.4761C30.629 32.5561 30.5109 32.6347 30.3918 32.7119C30.2727 32.789 30.1527 32.8646 30.0317 32.9388C29.9107 33.0129 29.7889 33.0856 29.6661 33.1567C29.5433 33.2278 29.4196 33.2974 29.2951 33.3654C29.1706 33.4334 29.0453 33.4999 28.9191 33.5649C28.7929 33.6298 28.666 33.6931 28.5382 33.7549C28.4104 33.8166 28.2819 33.8768 28.1527 33.9353C28.0235 33.9939 27.8935 34.0509 27.7628 34.1062C27.6322 34.1615 27.5009 34.2152 27.3688 34.2673C27.2368 34.3193 27.1042 34.3697 26.971 34.4185C26.8377 34.4673 26.7039 34.5144 26.5695 34.5598C26.435 34.6053 26.3 34.649 26.1645 34.6911C26.029 34.7332 25.893 34.7736 25.7565 34.8122C25.62 34.8509 25.483 34.8879 25.3456 34.9232C25.2081 34.9585 25.0703 34.992 24.932 35.0239C24.7925 35.0573 24.6527 35.089 24.5124 35.1189C24.3722 35.1489 24.2316 35.1771 24.0907 35.2035C23.9497 35.23 23.8084 35.2547 23.6668 35.2776C23.5253 35.3005 23.3835 35.3217 23.2414 35.3411C23.0993 35.3605 22.957 35.3781 22.8144 35.3939C22.6719 35.4098 22.5292 35.4239 22.3863 35.4362C22.2434 35.4485 22.1004 35.459 21.9573 35.4678C21.8141 35.4766 21.6709 35.4835 21.5276 35.4887C21.3843 35.4939 21.2409 35.4973 21.0975 35.4989C20.9541 35.5005 20.8107 35.5003 20.6673 35.4984C20.5239 35.4965 20.3806 35.4927 20.2373 35.4872C20.094 35.4817 19.9508 35.4744 19.8076 35.4653C19.6645 35.4562 19.5215 35.4454 19.3787 35.4328C19.2358 35.4201 19.0932 35.4057 18.9507 35.3895C18.8082 35.3733 18.6659 35.3554 18.5238 35.3356C18.3818 35.3159 18.24 35.2944 18.0985 35.2712C17.957 35.2479 17.8158 35.2229 17.6749 35.1962C17.534 35.1694 17.3935 35.1409 17.2533 35.1106C17.1131 35.0803 16.9733 35.0483 16.834 35.0146C16.6946 34.9809 16.5557 34.9454 16.4172 34.9082C16.2786 34.871 16.1406 34.8321 16.0031 34.7914C15.8656 34.7508 15.7285 34.7084 15.5921 34.6644C15.4556 34.6203 15.3197 34.5746 15.1843 34.5272C15.049 34.4798 14.9143 34.4307 14.7802 34.3799C14.646 34.3291 14.5126 34.2767 14.3798 34.2226C14.2469 34.1685 14.1148 34.1127 13.9834 34.0553C13.852 33.998 13.7213 33.9389 13.5913 33.8783C13.4613 33.8177 13.3321 33.7554 13.2037 33.6916C13.0753 33.6277 12.9477 33.5623 12.8209 33.4953C12.6942 33.4282 12.5682 33.3596 12.4431 33.2895C12.3181 33.2193 12.1939 33.1476 12.0706 33.0744C11.9473 33.0011 11.825 32.9263 11.7035 32.85C11.189 32.512 9.85331 31.612 9.50787 31.1425C9.73346 31.1331 9.95882 31.1199 10.184 31.1029C10.4091 31.086 10.6339 31.0653 10.8583 31.0408C11.0828 31.0164 11.3068 30.9882 11.5303 30.9562C11.7538 30.9243 11.9767 30.8887 12.199 30.8493C12.4213 30.8099 12.6429 30.7669 12.8638 30.7201C13.0847 30.6734 13.3047 30.6229 13.524 30.5688C13.7431 30.5147 13.9614 30.457 14.1786 30.3956C14.3959 30.3343 14.6121 30.2693 14.8272 30.2007C15.3201 30.4003 15.7899 30.6572 16.2869 30.8544C18.0459 31.5521 19.872 31.8287 21.7585 31.7346C21.868 31.7286 21.9774 31.7214 22.0868 31.7128C22.1961 31.7042 22.3054 31.6943 22.4145 31.683C22.5236 31.6718 22.6326 31.6592 22.7413 31.6453C22.8501 31.6314 22.9588 31.6162 23.0672 31.5996C23.1756 31.5831 23.2838 31.5652 23.3918 31.546C23.4998 31.5268 23.6076 31.5063 23.7151 31.4844C23.8226 31.4626 23.9298 31.4395 24.0367 31.4151C24.1436 31.3906 24.2503 31.3649 24.3566 31.3379C24.4628 31.3108 24.5688 31.2825 24.6744 31.2529C24.7801 31.2232 24.8853 31.1923 24.9901 31.1602C25.095 31.128 25.1995 31.0945 25.3035 31.0597C25.4075 31.025 25.5111 30.989 25.6143 30.9518C25.7175 30.9145 25.8202 30.876 25.9224 30.8362C26.0246 30.7965 26.1263 30.7555 26.2276 30.7132C26.3288 30.671 26.4295 30.6275 26.5297 30.5828C26.6298 30.5381 26.7294 30.4922 26.8284 30.4451C26.9275 30.3979 27.0259 30.3496 27.1238 30.3001C27.2217 30.2505 27.319 30.1998 27.4156 30.1479C27.5122 30.096 27.6082 30.0429 27.7035 29.9887C27.7989 29.9345 27.8935 29.8791 27.9875 29.8225C28.0815 29.7659 28.1748 29.7082 28.2674 29.6494C28.3599 29.5906 28.4518 29.5306 28.5429 29.4696C28.634 29.4085 28.7244 29.3463 28.814 29.283C28.9036 29.2198 28.9924 29.1554 29.0804 29.09C29.1684 29.0246 29.2557 28.9581 29.3421 28.8905C29.4285 28.823 29.514 28.7543 29.5988 28.6847C29.6835 28.615 29.7674 28.5443 29.8504 28.4727C29.9334 28.401 30.0155 28.3283 30.0968 28.2546C30.178 28.1809 30.2583 28.1062 30.3378 28.0305C30.4172 27.9549 30.4957 27.8783 30.5732 27.8007C30.6508 27.7231 30.7274 27.6446 30.803 27.5652C30.8787 27.4858 30.9533 27.4054 31.027 27.3241C32.899 25.2504 34.0894 22.4839 34.4215 19.7183C34.5414 18.7193 34.5423 17.7362 34.4904 16.7337C34.7208 16.4288 34.91 16.0752 35.1058 15.7463C35.8134 14.5574 36.5817 13.0922 37.0728 11.7921Z" fill="url(#paint5_linear_11_109)"/>
<path d="M5.44256 26.042C4.73631 24.5536 4.14294 22.9564 3.85891 21.3287C3.08165 16.874 3.87293 12.2682 6.50459 8.5342C9.26629 4.61572 13.1969 2.04975 17.9348 1.23758C18.0757 1.21278 18.217 1.18971 18.3585 1.16835C18.5 1.14701 18.6417 1.12741 18.7837 1.10954C18.9257 1.09166 19.0679 1.07554 19.2103 1.06116C19.3527 1.0468 19.4953 1.03418 19.6379 1.02329C19.7807 1.01239 19.9235 1.00326 20.0664 0.995879C20.2093 0.98848 20.3523 0.98284 20.4954 0.978995C20.6385 0.975115 20.7815 0.972982 20.9246 0.972621C21.0678 0.97226 21.2109 0.973635 21.354 0.976757C21.497 0.97988 21.6401 0.984775 21.783 0.991417C21.926 0.998059 22.0689 1.00647 22.2116 1.01663C22.3543 1.02677 22.497 1.03867 22.6394 1.05232C22.7819 1.06598 22.9242 1.08136 23.0662 1.09848C23.2084 1.11562 23.3502 1.1345 23.4918 1.1551C23.6335 1.1757 23.7748 1.19805 23.9159 1.22215C24.0569 1.24621 24.1977 1.27201 24.3382 1.29953C24.4786 1.32706 24.6187 1.3563 24.7584 1.38729C24.8981 1.41824 25.0375 1.45091 25.1764 1.48529C25.3153 1.51966 25.4538 1.55573 25.5918 1.59348C25.7299 1.63126 25.8675 1.67073 26.0045 1.71187C26.1416 1.75302 26.2782 1.79584 26.4142 1.84033C26.5502 1.88484 26.6857 1.931 26.8205 1.97879C26.9555 2.02662 27.0898 2.07608 27.2234 2.12718C27.3571 2.17827 27.4901 2.23101 27.6225 2.2854C27.7549 2.33978 27.8866 2.39576 28.0176 2.45336C28.1486 2.51095 28.2789 2.57014 28.4085 2.63092C28.5381 2.69173 28.6668 2.75411 28.7949 2.81805C28.9229 2.88202 29.0502 2.94753 29.1766 3.01459C29.303 3.08165 29.4286 3.15026 29.5533 3.22042C29.6781 3.29054 29.802 3.36221 29.9249 3.4354C30.0479 3.50859 30.17 3.58327 30.2912 3.65944C30.4123 3.73564 30.5325 3.81329 30.6518 3.8924C30.771 3.97154 30.8893 4.05212 31.0066 4.13414C30.9511 4.17948 30.893 4.22194 30.8399 4.26992C30.734 4.3656 30.5543 4.41056 30.431 4.48931C30.235 4.61453 30.0708 4.80133 29.8714 4.91754C29.8187 4.94832 29.7609 4.94854 29.7018 4.95455C29.4173 4.98332 28.9099 5.63413 28.6486 5.81948C28.3883 6.00411 28.0812 6.12254 27.8203 6.30794C27.82 6.42883 28.0242 6.57886 28.0874 6.68942C27.8033 6.53361 27.5319 6.35509 27.2459 6.20137C26.8562 5.99172 26.4577 5.8005 26.0503 5.62772C25.6429 5.45493 25.2283 5.30131 24.8067 5.16685C24.7049 5.13389 24.6028 5.1022 24.5002 5.07176C24.3977 5.04133 24.2948 5.01216 24.1915 4.98428C24.0882 4.95639 23.9846 4.92979 23.8807 4.90448C23.7767 4.87914 23.6725 4.8551 23.568 4.83233C23.4634 4.80957 23.3586 4.78812 23.2536 4.76797C23.1485 4.74779 23.0432 4.72892 22.9377 4.71135C22.8322 4.69381 22.7264 4.67756 22.6205 4.6626C22.5146 4.64763 22.4085 4.634 22.3023 4.62167C22.196 4.60932 22.0896 4.59831 21.9831 4.58863C21.8765 4.57892 21.7699 4.57053 21.6632 4.56346C21.5564 4.55638 21.4496 4.55064 21.3427 4.54621C21.2358 4.54178 21.1289 4.53867 21.0219 4.53688C20.915 4.53508 20.808 4.53462 20.7011 4.53547C20.5941 4.53632 20.4871 4.53849 20.3802 4.54198C20.2733 4.54546 20.1664 4.55028 20.0596 4.55641C19.9528 4.56257 19.8461 4.57003 19.7395 4.5788C19.6329 4.58758 19.5264 4.59765 19.42 4.60903C19.3136 4.62044 19.2074 4.63315 19.1014 4.64717C18.9953 4.66119 18.8895 4.67653 18.7838 4.69318C18.6781 4.70981 18.5726 4.72775 18.4674 4.74698C18.3622 4.76622 18.2572 4.78677 18.1525 4.80861C18.0477 4.83043 17.9433 4.85356 17.8392 4.87798C17.735 4.90241 17.6312 4.92811 17.5276 4.95509C17.4241 4.98206 17.321 5.01032 17.2182 5.03984C17.1153 5.06936 17.0129 5.10016 16.9108 5.13224C16.8088 5.16429 16.7071 5.1976 16.6059 5.2322C16.5046 5.26676 16.4038 5.30257 16.3035 5.33962C16.2031 5.37668 16.1033 5.41497 16.0038 5.4545C15.9045 5.49404 15.8056 5.5348 15.7072 5.57676C15.6088 5.61872 15.5109 5.66191 15.4136 5.7063C15.3162 5.75066 15.2195 5.79625 15.1233 5.84303C15.027 5.88983 14.9314 5.93778 14.8364 5.98692C14.7349 6.03896 14.634 6.09225 14.5338 6.14678C14.4335 6.20131 14.334 6.25707 14.2351 6.31405C14.1363 6.37101 14.0381 6.42918 13.9407 6.48857C13.8433 6.54795 13.7466 6.60855 13.6506 6.67033C13.5547 6.73209 13.4595 6.795 13.3651 6.85909C13.2707 6.92321 13.1771 6.98847 13.0843 7.05486C12.9915 7.12126 12.8996 7.18877 12.8084 7.25742C12.7173 7.32609 12.627 7.39585 12.5376 7.46671C12.4482 7.53759 12.3597 7.60956 12.272 7.6826C12.1843 7.75567 12.0976 7.82979 12.0118 7.90495C11.9259 7.98014 11.841 8.05638 11.7571 8.13363C11.6731 8.21089 11.5901 8.28917 11.5081 8.36845C11.4261 8.44777 11.345 8.52808 11.2649 8.60938C11.1849 8.69068 11.1058 8.77294 11.0278 8.85618C10.9497 8.93942 10.8727 9.02359 10.7967 9.10872C10.7208 9.19386 10.6459 9.27993 10.572 9.36689C10.4982 9.45385 10.4254 9.54173 10.3537 9.63048C10.282 9.71924 10.2114 9.80887 10.1418 9.89935C10.0723 9.98985 10.004 10.0812 9.93673 10.1734C9.86945 10.2655 9.80333 10.3585 9.73836 10.4523C9.6734 10.5461 9.60959 10.6407 9.54696 10.7361C9.48429 10.8314 9.42281 10.9275 9.36252 11.0244C9.30223 11.1213 9.24314 11.2189 9.18528 11.3172C9.12738 11.4155 9.0707 11.5146 9.01522 11.6143C8.95978 11.714 8.90557 11.8144 8.85258 11.9154C8.79957 12.0165 8.74782 12.1182 8.69733 12.2205C8.64684 12.3228 8.59762 12.4257 8.54967 12.5292C8.50169 12.6328 8.455 12.7369 8.4096 12.8416C8.36417 12.9462 8.32005 13.0515 8.27724 13.1573C8.23443 13.263 8.19291 13.3693 8.1527 13.4761C8.11246 13.5828 8.07355 13.6901 8.03599 13.7978C7.99842 13.9055 7.96217 14.0137 7.92724 14.1224C7.90142 14.2054 7.87642 14.2888 7.85223 14.3723C7.82801 14.4559 7.80461 14.5397 7.78204 14.6237C7.75946 14.7077 7.7377 14.792 7.71676 14.8764C7.69583 14.9609 7.67572 15.0455 7.65645 15.1303C7.63715 15.2152 7.61867 15.3002 7.60101 15.3854C7.58338 15.4706 7.56659 15.556 7.55062 15.6415C7.53463 15.727 7.51948 15.8126 7.50515 15.8985C7.49083 15.9843 7.47736 16.0702 7.46473 16.1563C7.45208 16.2424 7.44026 16.3286 7.42927 16.4149C7.41832 16.5012 7.40819 16.5876 7.39892 16.6741C7.38961 16.7606 7.38115 16.8472 7.37356 16.9339C7.36594 17.0205 7.35918 17.1073 7.35326 17.1941C7.34732 17.2809 7.34223 17.3677 7.33801 17.4546C7.33376 17.5415 7.33037 17.6284 7.32781 17.7154C7.32526 17.8024 7.32356 17.8893 7.32271 17.9764C7.32186 18.0634 7.32186 18.1504 7.32271 18.2374C7.32353 18.3244 7.3252 18.4113 7.32772 18.4983C7.33024 18.5853 7.33361 18.6722 7.33782 18.7591C7.34204 18.846 7.34711 18.9328 7.35303 19.0196C7.35892 19.1064 7.36565 19.1932 7.37324 19.2798C7.38082 19.3665 7.38926 19.4531 7.39855 19.5396C7.4078 19.6261 7.4179 19.7125 7.42886 19.7988C7.43982 19.8851 7.45161 19.9713 7.46423 20.0574C7.47685 20.1435 7.49031 20.2294 7.50461 20.3153C7.5189 20.4011 7.53403 20.4868 7.54999 20.5723C7.56596 20.6578 7.58275 20.7432 7.60038 20.8284C7.61797 20.9136 7.63641 20.9986 7.65568 21.0834C7.67496 21.1683 7.69506 21.2529 7.716 21.3373C7.7369 21.4218 7.75863 21.506 7.78118 21.5901C7.80373 21.6741 7.82709 21.7579 7.85128 21.8415C7.87547 21.9251 7.90046 22.0084 7.92625 22.0915C7.95208 22.1745 7.97869 22.2574 8.0061 22.3399C8.3051 23.2178 8.71126 24.041 9.13917 24.8613C8.79947 25.0086 8.43724 25.1192 8.08739 25.2408C7.21966 25.5424 6.33661 25.8282 5.44256 26.042Z" fill="url(#paint6_linear_11_109)"/>
<path d="M57.5054 11.04V13.3H53.7854V25H50.9854V13.3H47.2654V11.04H57.5054ZM61.9484 15.64C62.3084 15.0533 62.775 14.5933 63.3484 14.26C63.935 13.9267 64.6017 13.76 65.3484 13.76V16.7H64.6084C63.7284 16.7 63.0617 16.9067 62.6084 17.32C62.1684 17.7333 61.9484 18.4533 61.9484 19.48V25H59.1484V13.92H61.9484V15.64ZM66.1143 19.42C66.1143 18.3 66.3343 17.3067 66.7743 16.44C67.2277 15.5733 67.8343 14.9067 68.5943 14.44C69.3677 13.9733 70.2277 13.74 71.1743 13.74C72.001 13.74 72.721 13.9067 73.3343 14.24C73.961 14.5733 74.461 14.9933 74.8343 15.5V13.92H77.6543V25H74.8343V23.38C74.4743 23.9 73.9743 24.3333 73.3343 24.68C72.7077 25.0133 71.981 25.18 71.1543 25.18C70.221 25.18 69.3677 24.94 68.5943 24.46C67.8343 23.98 67.2277 23.3067 66.7743 22.44C66.3343 21.56 66.1143 20.5533 66.1143 19.42ZM74.8343 19.46C74.8343 18.78 74.701 18.2 74.4343 17.72C74.1677 17.2267 73.8077 16.8533 73.3543 16.6C72.901 16.3333 72.4143 16.2 71.8943 16.2C71.3743 16.2 70.8943 16.3267 70.4543 16.58C70.0143 16.8333 69.6543 17.2067 69.3743 17.7C69.1077 18.18 68.9743 18.7533 68.9743 19.42C68.9743 20.0867 69.1077 20.6733 69.3743 21.18C69.6543 21.6733 70.0143 22.0533 70.4543 22.32C70.9077 22.5867 71.3877 22.72 71.8943 22.72C72.4143 22.72 72.901 22.5933 73.3543 22.34C73.8077 22.0733 74.1677 21.7 74.4343 21.22C74.701 20.7267 74.8343 20.14 74.8343 19.46ZM81.409 12.6C80.9157 12.6 80.5023 12.4467 80.169 12.14C79.849 11.82 79.689 11.4267 79.689 10.96C79.689 10.4933 79.849 10.1067 80.169 9.8C80.5023 9.48 80.9157 9.32 81.409 9.32C81.9023 9.32 82.309 9.48 82.629 9.8C82.9623 10.1067 83.129 10.4933 83.129 10.96C83.129 11.4267 82.9623 11.82 82.629 12.14C82.309 12.4467 81.9023 12.6 81.409 12.6ZM82.789 13.92V25H79.989V13.92H82.789ZM87.9554 10.2V25H85.1554V10.2H87.9554ZM93.1218 15.54C93.4818 15.0067 93.9752 14.5733 94.6018 14.24C95.2418 13.9067 95.9685 13.74 96.7818 13.74C97.7285 13.74 98.5818 13.9733 99.3418 14.44C100.115 14.9067 100.722 15.5733 101.162 16.44C101.615 17.2933 101.842 18.2867 101.842 19.42C101.842 20.5533 101.615 21.56 101.162 22.44C100.722 23.3067 100.115 23.98 99.3418 24.46C98.5818 24.94 97.7285 25.18 96.7818 25.18C95.9552 25.18 95.2285 25.02 94.6018 24.7C93.9885 24.3667 93.4952 23.94 93.1218 23.42V25H90.3218V10.2H93.1218V15.54ZM98.9818 19.42C98.9818 18.7533 98.8418 18.18 98.5618 17.7C98.2952 17.2067 97.9352 16.8333 97.4818 16.58C97.0418 16.3267 96.5618 16.2 96.0418 16.2C95.5352 16.2 95.0552 16.3333 94.6018 16.6C94.1618 16.8533 93.8018 17.2267 93.5218 17.72C93.2552 18.2133 93.1218 18.7933 93.1218 19.46C93.1218 20.1267 93.2552 20.7067 93.5218 21.2C93.8018 21.6933 94.1618 22.0733 94.6018 22.34C95.0552 22.5933 95.5352 22.72 96.0418 22.72C96.5618 22.72 97.0418 22.5867 97.4818 22.32C97.9352 22.0533 98.2952 21.6733 98.5618 21.18C98.8418 20.6867 98.9818 20.1 98.9818 19.42ZM106.277 10.2V25H103.477V10.2H106.277ZM107.923 19.42C107.923 18.3 108.143 17.3067 108.583 16.44C109.036 15.5733 109.643 14.9067 110.403 14.44C111.176 13.9733 112.036 13.74 112.983 13.74C113.81 13.74 114.53 13.9067 115.143 14.24C115.77 14.5733 116.27 14.9933 116.643 15.5V13.92H119.463V25H116.643V23.38C116.283 23.9 115.783 24.3333 115.143 24.68C114.516 25.0133 113.79 25.18 112.963 25.18C112.03 25.18 111.176 24.94 110.403 24.46C109.643 23.98 109.036 23.3067 108.583 22.44C108.143 21.56 107.923 20.5533 107.923 19.42ZM116.643 19.46C116.643 18.78 116.51 18.2 116.243 17.72C115.976 17.2267 115.616 16.8533 115.163 16.6C114.71 16.3333 114.223 16.2 113.703 16.2C113.183 16.2 112.703 16.3267 112.263 16.58C111.823 16.8333 111.463 17.2067 111.183 17.7C110.916 18.18 110.783 18.7533 110.783 19.42C110.783 20.0867 110.916 20.6733 111.183 21.18C111.463 21.6733 111.823 22.0533 112.263 22.32C112.716 22.5867 113.196 22.72 113.703 22.72C114.223 22.72 114.71 22.5933 115.163 22.34C115.616 22.0733 115.976 21.7 116.243 21.22C116.51 20.7267 116.643 20.14 116.643 19.46ZM124.358 22.7H129.298V25H121.178V22.74L126.018 16.22H121.198V13.92H129.238V16.18L124.358 22.7ZM141.366 19.22C141.366 19.62 141.339 19.98 141.286 20.3H133.186C133.252 21.1 133.532 21.7267 134.026 22.18C134.519 22.6333 135.126 22.86 135.846 22.86C136.886 22.86 137.626 22.4133 138.066 21.52H141.086C140.766 22.5867 140.152 23.4667 139.246 24.16C138.339 24.84 137.226 25.18 135.906 25.18C134.839 25.18 133.879 24.9467 133.026 24.48C132.186 24 131.526 23.3267 131.046 22.46C130.579 21.5933 130.346 20.5933 130.346 19.46C130.346 18.3133 130.579 17.3067 131.046 16.44C131.512 15.5733 132.166 14.9067 133.006 14.44C133.846 13.9733 134.812 13.74 135.906 13.74C136.959 13.74 137.899 13.9667 138.726 14.42C139.566 14.8733 140.212 15.52 140.666 16.36C141.132 17.1867 141.366 18.14 141.366 19.22ZM138.466 18.42C138.452 17.7 138.192 17.1267 137.686 16.7C137.179 16.26 136.559 16.04 135.826 16.04C135.132 16.04 134.546 16.2533 134.066 16.68C133.599 17.0933 133.312 17.6733 133.206 18.42H138.466ZM145.809 15.64C146.169 15.0533 146.636 14.5933 147.209 14.26C147.796 13.9267 148.463 13.76 149.209 13.76V16.7H148.469C147.589 16.7 146.923 16.9067 146.469 17.32C146.029 17.7333 145.809 18.4533 145.809 19.48V25H143.009V13.92H145.809V15.64ZM154.935 25.18C154.029 25.18 153.215 25.02 152.495 24.7C151.775 24.3667 151.202 23.92 150.775 23.36C150.362 22.8 150.135 22.18 150.095 21.5H152.915C152.969 21.9267 153.175 22.28 153.535 22.56C153.909 22.84 154.369 22.98 154.915 22.98C155.449 22.98 155.862 22.8733 156.155 22.66C156.462 22.4467 156.615 22.1733 156.615 21.84C156.615 21.48 156.429 21.2133 156.055 21.04C155.695 20.8533 155.115 20.6533 154.315 20.44C153.489 20.24 152.809 20.0333 152.275 19.82C151.755 19.6067 151.302 19.28 150.915 18.84C150.542 18.4 150.355 17.8067 150.355 17.06C150.355 16.4467 150.529 15.8867 150.875 15.38C151.235 14.8733 151.742 14.4733 152.395 14.18C153.062 13.8867 153.842 13.74 154.735 13.74C156.055 13.74 157.109 14.0733 157.895 14.74C158.682 15.3933 159.115 16.28 159.195 17.4H156.515C156.475 16.96 156.289 16.6133 155.955 16.36C155.635 16.0933 155.202 15.96 154.655 15.96C154.149 15.96 153.755 16.0533 153.475 16.24C153.209 16.4267 153.075 16.6867 153.075 17.02C153.075 17.3933 153.262 17.68 153.635 17.88C154.009 18.0667 154.589 18.26 155.375 18.46C156.175 18.66 156.835 18.8667 157.355 19.08C157.875 19.2933 158.322 19.6267 158.695 20.08C159.082 20.52 159.282 21.1067 159.295 21.84C159.295 22.48 159.115 23.0533 158.755 23.56C158.409 24.0667 157.902 24.4667 157.235 24.76C156.582 25.04 155.815 25.18 154.935 25.18Z" fill="#0F2883"/>
<defs>
<linearGradient id="paint0_linear_11_109" x1="26.5199" y1="13.1618" x2="25.9446" y2="10.0642" gradientUnits="userSpaceOnUse">
<stop stop-color="#1AAADF"/>
<stop offset="1" stop-color="#2DCBEF"/>
</linearGradient>
<linearGradient id="paint1_linear_11_109" x1="14.285" y1="12.5526" x2="11.1895" y2="10.6667" gradientUnits="userSpaceOnUse">
<stop stop-color="#1B9AD6"/>
<stop offset="1" stop-color="#30CFF2"/>
</linearGradient>
<linearGradient id="paint2_linear_11_109" x1="14.6145" y1="31.0254" x2="10.1847" y2="26.7246" gradientUnits="userSpaceOnUse">
<stop stop-color="#0E4495"/>
<stop offset="1" stop-color="#2592C8"/>
</linearGradient>
<linearGradient id="paint3_linear_11_109" x1="20.0605" y1="15.0422" x2="19.1732" y2="9.59261" gradientUnits="userSpaceOnUse">
<stop stop-color="#1E9BD5"/>
<stop offset="1" stop-color="#30CDF2"/>
</linearGradient>
<linearGradient id="paint4_linear_11_109" x1="33.6145" y1="19.3168" x2="26.569" y2="8.41818" gradientUnits="userSpaceOnUse">
<stop stop-color="#0F3E92"/>
<stop offset="1" stop-color="#1477BB"/>
</linearGradient>
<linearGradient id="paint5_linear_11_109" x1="32.9969" y1="30.5935" x2="20.8295" y2="19.1752" gradientUnits="userSpaceOnUse">
<stop stop-color="#0E2581"/>
<stop offset="1" stop-color="#2172B2"/>
</linearGradient>
<linearGradient id="paint6_linear_11_109" x1="22.5608" y1="17.746" x2="6.81769" y2="8.0341" gradientUnits="userSpaceOnUse">
<stop stop-color="#18A057"/>
<stop offset="1" stop-color="#88C959"/>
</linearGradient>
</defs>
</svg>
